# xmcd CD database file
#
# Track frame offsets:
#	182
#	24075
#	46515
#	70190
#	89725
#	110995
#	129985
#	148637
#	174012
#	191865
#	218645
#	250420
#	269792
#	292435
#
# Disc length: 4161 seconds
#
# Revision: 3
# Processed by: cddbd v1.5.2PL0 Copyright (c) Steve Scherf et al.
# Submitted via: CDex 1.51
#
DISCID=da103f0e
DTITLE=The O'Jays - Emotionally Yours
DYEAR=1991
DGENRE=Soul
TTITLE0=Don't Let Me Down
TTITLE1=Something For Nothing
TTITLE2=Emotionally Yours (R&B Version)
TTITLE3=Feat.The Jaz_Respect
TTITLE4=Keep On Lovin' Me
TTITLE5=Love and Trust
TTITLE6=Don't You Know True Love
TTITLE7=Emotionally Yours (Gospel Version)
TTITLE8=That's How Love Is
TTITLE9=Closer To You
TTITLE10=Feat.Najee_If I Fine Love Again
TTITLE11=Keep On Pleasin' Me
TTITLE12=Lies
TTITLE13=Make It Feel Good
EXTD=YEAR: 1991
EXTT0=
EXTT1=
EXTT2=
EXTT3=
EXTT4=
EXTT5=
EXTT6=
EXTT7=
EXTT8=
EXTT9=
EXTT10=
EXTT11=
EXTT12=
EXTT13=
PLAYORDER=
